<svg width="187" height="59" viewBox="0 0 187 59" fill="none" xmlns="http://www.w3.org/2000/svg">
<path d="M14.0378 32.1082C13.9026 32.1545 13.9058 32.1877 14.0472 32.2077C15.7859 32.4518 17.4927 33.2141 18.807 34.3989C20.5921 36.0087 21.5171 38.183 21.5822 40.9218C21.6423 43.4379 20.7172 45.4908 18.807 47.0805C17.8469 47.8804 16.7254 48.4612 15.4423 48.8229C14.0115 49.2273 12.5295 49.4238 10.9961 49.4125C9.08086 49.4 5.44386 49.3969 0.0850693 49.4031C0.018726 49.4031 -0.00881281 49.3706 0.00245305 49.3055L0.0493941 49.0332C0.06066 48.9682 0.0994646 48.9381 0.165808 48.9431C1.46514 49.0445 2.66871 48.4887 3.20947 47.3021C3.39723 46.889 3.49111 46.1504 3.49111 45.0864C3.49111 41.1697 3.49111 33.1115 3.49111 20.9118C3.49111 20.4612 3.33339 19.9091 3.06677 19.5167C2.38831 18.5165 1.39692 18.0722 0.0925799 18.1836C0.0848729 18.1841 0.0771423 18.183 0.0698687 18.1804C0.062595 18.1778 0.0559336 18.1737 0.0502985 18.1685C0.0446635 18.1632 0.0401751 18.1568 0.0371124 18.1497C0.0340497 18.1426 0.0324781 18.135 0.0324953 18.1272V17.7855C0.0324953 17.7492 0.0506459 17.7311 0.086947 17.7311C5.61222 17.721 8.91938 17.7273 10.0084 17.7498C11.6595 17.7849 13.2236 18.1492 14.7006 18.8426C17.795 20.2922 19.13 23.0692 18.7563 26.3814C18.6449 27.374 18.3645 28.2452 17.9152 28.995C17.0139 30.5034 15.7215 31.5411 14.0378 32.1082ZM8.05191 32.2603C8.65776 32.2728 9.47141 32.1845 10.4928 31.9955C11.4329 31.8203 12.2328 31.4992 12.8925 31.0323C13.8181 30.3789 14.6143 29.5283 14.9936 28.4299C15.3465 27.4084 15.4874 26.2199 15.416 24.8642C15.232 21.4263 12.9131 19.3552 9.52961 19.2013C8.74351 19.165 7.73146 19.1568 6.49346 19.1768C6.4484 19.1781 6.42587 19.2006 6.42587 19.2444L6.42775 47.7151C6.42775 47.7577 6.45403 47.779 6.50661 47.779C6.55417 47.779 8.0663 47.784 11.043 47.794C12.3924 47.7978 13.6141 47.5343 14.7081 47.0035C17.0233 45.8788 18.0879 43.6557 18.1837 41.1396C18.2425 39.5912 18.031 38.2762 17.549 37.1947C17.0959 36.177 16.5551 35.4047 15.9267 34.8777C14.9942 34.0978 13.8607 33.5346 12.5263 33.1878C11.1118 32.8211 9.63038 32.6489 8.08195 32.6715C8.0081 32.6727 7.97117 32.6358 7.97117 32.5607V32.3391C7.97117 32.2853 7.99808 32.259 8.05191 32.2603Z" fill="#B0CDEF"/>
<path d="M174.067 22.2086C178.475 22.2111 181.037 22.2105 181.752 22.2067C183.374 22.1967 184.938 21.9751 186.442 21.542C186.471 21.5333 186.485 21.5445 186.485 21.5758V26.5103C186.485 26.5729 186.455 26.6041 186.393 26.6041H186.074C186.019 26.6041 185.992 26.5772 185.992 26.5234C185.992 26.0615 186.01 25.6372 185.909 25.2579C185.605 24.13 184.848 23.5667 183.637 23.568C181.776 23.5705 179.098 23.5686 175.604 23.5624C175.586 23.5624 175.568 23.5697 175.555 23.5827C175.542 23.5957 175.535 23.6134 175.535 23.6318C175.534 30.9058 175.529 38.1854 175.522 45.4707C175.522 46.3945 175.578 47.011 175.689 47.3202C175.911 47.9373 176.379 48.408 177.093 48.7322C177.498 48.9162 177.996 48.99 178.588 48.9537C178.654 48.95 178.696 48.9806 178.712 49.0457C178.738 49.1571 178.738 49.251 178.71 49.3274C178.691 49.38 178.644 49.4069 178.569 49.4081C178.392 49.4094 176.886 49.4094 174.052 49.4081C171.218 49.4069 169.712 49.405 169.534 49.4025C169.459 49.4012 169.412 49.3743 169.393 49.3217C169.366 49.2454 169.365 49.1515 169.391 49.0401C169.408 48.975 169.449 48.9443 169.515 48.9481C170.107 48.9856 170.606 48.9124 171.01 48.7284C171.725 48.4055 172.193 47.9354 172.416 47.3183C172.528 47.0091 172.584 46.3926 172.585 45.4688C172.585 38.1836 172.589 30.9039 172.596 23.63C172.596 23.6208 172.595 23.6118 172.591 23.6034C172.588 23.5949 172.583 23.5873 172.576 23.5808C172.57 23.5744 172.562 23.5693 172.554 23.5658C172.545 23.5623 172.536 23.5605 172.527 23.5605C169.033 23.563 166.356 23.5617 164.494 23.5567C163.284 23.5542 162.526 24.1169 162.221 25.2447C162.117 25.624 162.136 26.0484 162.136 26.5103C162.136 26.5641 162.109 26.591 162.054 26.591H161.734C161.673 26.591 161.642 26.5597 161.642 26.4971L161.648 21.5627C161.648 21.5314 161.662 21.5201 161.691 21.5289C163.195 21.9632 164.757 22.1867 166.38 22.1992C167.094 22.2029 169.657 22.2061 174.067 22.2086Z" fill="#B0CDEF"/>
<path d="M32.4094 23.7709V35.0386C32.4094 35.1024 32.4413 35.1344 32.5052 35.1344C36.969 35.1606 39.5463 35.1644 40.2373 35.1456C41.1586 35.1193 41.7319 34.6418 41.9572 33.713C42.0023 33.529 42.0167 33.2041 42.0004 32.7385C41.9999 32.7283 42.0015 32.7181 42.005 32.7086C42.0086 32.699 42.014 32.6903 42.0211 32.6829C42.0281 32.6756 42.0365 32.6697 42.0459 32.6657C42.0553 32.6617 42.0653 32.6596 42.0755 32.6596H42.4079C42.468 32.6596 42.498 32.6897 42.498 32.7498V38.9178C42.498 38.9704 42.4717 38.9967 42.4191 38.9967H42.0755C42.0255 38.9967 42.0011 38.9723 42.0023 38.9234C42.0342 38.0241 41.9535 37.1885 41.1761 36.7473C40.9058 36.5933 40.3706 36.5144 39.5708 36.5107C37.0297 36.5007 34.6789 36.5032 32.5183 36.5182C32.4457 36.5182 32.4094 36.5551 32.4094 36.629V47.9493C32.4094 47.9644 32.4153 47.9789 32.4258 47.9898C32.4363 48.0006 32.4506 48.007 32.4658 48.0075C35.6565 48.01 37.8414 48.0106 39.0206 48.0094C39.9995 48.0081 40.7975 47.9424 41.4146 47.8122C43.0344 47.4717 44.3024 46.7056 45.2187 45.514C45.6355 44.972 46.1194 44.1402 46.6701 43.0186C46.6989 42.961 46.7452 42.9322 46.8091 42.9322H47.0363C47.1189 42.9322 47.1452 42.9704 47.1151 43.0467L44.7024 49.3275C44.6823 49.38 44.6441 49.4063 44.5878 49.4063H26.3841C26.324 49.4063 26.2939 49.3763 26.2939 49.3162V49.0402C26.2939 48.9738 26.3271 48.9425 26.3935 48.9463C26.8491 48.9726 27.1733 48.9663 27.3661 48.9275C28.2886 48.7385 28.9251 48.2829 29.2756 47.5606C29.4634 47.1751 29.5573 46.5135 29.5573 45.5759C29.5548 38.9191 29.5542 32.2622 29.5554 25.6053C29.5554 24.8831 29.4797 24.3711 29.3282 24.0694C28.8062 23.0236 27.5163 22.5729 26.3784 22.7213C26.3679 22.7223 26.3573 22.7212 26.3473 22.718C26.3373 22.7148 26.3281 22.7096 26.3203 22.7027C26.3125 22.6958 26.3063 22.6873 26.3021 22.6779C26.2979 22.6685 26.2957 22.6583 26.2958 22.648V22.3213C26.2958 22.275 26.319 22.2519 26.3653 22.2519C34.7271 22.2581 39.2747 22.2556 40.0082 22.2443C41.5892 22.2218 43.087 21.9959 44.5014 21.5665C44.5105 21.5639 44.5199 21.5634 44.5292 21.5651C44.5384 21.5668 44.5471 21.5706 44.5546 21.5762C44.5621 21.5819 44.5681 21.5892 44.5723 21.5977C44.5764 21.6061 44.5785 21.6153 44.5784 21.6247V26.5986C44.5784 26.6387 44.5584 26.6587 44.5183 26.6587H44.1466C44.104 26.6587 44.0834 26.6374 44.0846 26.5948C44.0996 26.1067 44.0946 25.8025 44.0696 25.6823C43.7767 24.3304 43.0162 23.6532 41.7883 23.6507C37.3645 23.6444 34.2739 23.6488 32.5165 23.6638C32.4451 23.6638 32.4094 23.6995 32.4094 23.7709Z" fill="#B0CDEF"/>
<path d="M123.937 23.7696V35.0429C123.937 35.1093 123.97 35.1425 124.036 35.1425C126.4 35.1587 128.695 35.1606 130.922 35.1481C131.612 35.1456 132.022 35.1299 132.149 35.1012C133.325 34.8402 133.595 33.8319 133.526 32.7428C133.525 32.7323 133.526 32.7216 133.53 32.7116C133.533 32.7016 133.539 32.6925 133.546 32.6847C133.553 32.677 133.562 32.6708 133.572 32.6666C133.582 32.6624 133.592 32.6602 133.603 32.6602H133.939C134 32.6602 134.031 32.6909 134.031 32.7522V38.9165C134.031 38.9716 134.004 38.9991 133.95 38.9991H133.605C133.594 38.9992 133.584 38.9971 133.575 38.9931C133.566 38.9891 133.557 38.9832 133.55 38.9758C133.543 38.9685 133.538 38.9597 133.534 38.9502C133.531 38.9406 133.529 38.9305 133.53 38.9203C133.563 37.9683 133.471 37.1046 132.594 36.7047C132.312 36.5757 131.75 36.5106 130.91 36.5094C128.37 36.5044 126.075 36.5069 124.025 36.5169C123.966 36.5169 123.937 36.5463 123.937 36.6051V47.8973C123.937 47.9661 123.971 48.0006 124.04 48.0006C127.104 48.0168 129.493 48.0168 131.207 48.0006C133.499 47.978 135.32 47.19 136.671 45.6366C137.071 45.176 137.579 44.2985 138.194 43.0042C138.214 42.9603 138.248 42.9384 138.297 42.9384H138.609C138.66 42.9384 138.677 42.9622 138.659 43.0098L136.241 49.3055C136.215 49.3731 136.165 49.4069 136.093 49.4069H117.924C117.859 49.4069 117.827 49.3744 117.827 49.3093V49.0408C117.827 48.9682 117.863 48.9356 117.934 48.9431C119.162 49.0614 120.407 48.5751 120.872 47.4485C121.018 47.0955 121.09 46.4615 121.09 45.5465C121.088 39.2 121.087 32.5638 121.088 25.6378C121.09 24.893 121.008 24.361 120.842 24.0418C120.317 23.0223 119.07 22.5904 117.955 22.7181C117.872 22.7281 117.831 22.6912 117.831 22.6073V22.3651C117.831 22.2887 117.869 22.2506 117.945 22.2506C125.627 22.2593 130.312 22.255 131.999 22.2374C133.125 22.2262 134.46 22.0077 136.004 21.5821C136.076 21.5621 136.111 21.5896 136.111 21.6647V26.5973C136.111 26.6152 136.104 26.6324 136.092 26.6451C136.079 26.6578 136.062 26.6649 136.044 26.6649H135.719C135.704 26.6649 135.689 26.6619 135.675 26.6562C135.662 26.6504 135.649 26.6419 135.639 26.6313C135.628 26.6206 135.62 26.6079 135.614 26.5941C135.609 26.5802 135.606 26.5653 135.606 26.5504C135.614 25.9558 135.601 25.5965 135.567 25.4726C135.226 24.2596 134.46 23.6525 133.269 23.6513C129.319 23.645 126.245 23.6475 124.046 23.6588C123.973 23.6601 123.937 23.697 123.937 23.7696Z" fill="#B0CDEF"/>
<path d="M69.555 49.6685C71.9346 50.4521 73.9631 51.1593 75.6405 51.7902C77.0612 52.3235 79.2005 53.1509 82.0582 54.2725C83.6668 54.9034 84.8478 55.3183 85.6013 55.5174C87.6642 56.0631 89.7228 56.3348 91.7769 56.3323C95.5641 56.3304 99.3983 55.4197 102.207 52.9318C102.456 52.7128 102.543 52.7741 102.466 53.1159C102.463 53.1346 102.423 53.2022 102.348 53.3186C101.627 54.4465 100.68 55.4066 99.5072 56.1989C96.5868 58.173 93.4536 59.1037 90.1077 58.991C87.9184 58.9171 85.8229 58.5128 83.8213 57.778C82.3768 57.2485 80.9429 56.617 79.5197 55.8835C76.6556 54.4077 74.4388 53.3011 72.8691 52.5638C70.8506 51.6175 68.8471 50.8082 66.7479 50.2205C66.3336 50.1054 65.7797 50.0365 65.0862 50.014C60.287 49.8544 56.0623 47.7664 53.2214 43.9379C51.1241 41.1083 50.4181 37.2573 50.9157 33.7386C51.4545 29.9195 53.488 26.519 56.6706 24.3353C58.7748 22.8908 61.2346 22.0208 64.0498 21.7254C67.4909 21.3637 70.6065 21.9482 73.3967 23.4791C74.5696 24.1225 75.5797 24.8492 76.4272 25.6591C79.0646 28.1851 80.4754 31.3577 80.6594 35.1769C80.8415 38.9922 79.6642 42.5072 77.0956 45.2955C75.2831 47.2632 73.0612 48.6151 70.43 49.3512C70.0482 49.4588 69.7559 49.5471 69.5531 49.6159C69.5031 49.6334 69.5037 49.651 69.555 49.6685ZM54.1039 35.8322C54.1039 40.1751 55.6398 43.9454 59.0928 46.5685C60.9967 48.0162 63.3381 48.6884 65.7359 48.6884C68.1355 48.6884 70.4769 48.0181 72.3809 46.5704C75.8339 43.9473 77.3698 40.177 77.3716 35.8359C77.3716 31.4929 75.8357 27.7226 72.3827 25.0995C70.4788 23.6519 68.1374 22.9797 65.7396 22.9797C63.34 22.9797 60.9986 23.65 59.0947 25.0977C55.6417 27.7207 54.1039 31.491 54.1039 35.8322Z" fill="#B0CDEF"/>
<path d="M156.64 26.9528H156.236C156.197 26.9528 156.178 26.9334 156.178 26.8946C156.172 23.4848 152.836 22.7469 150.085 23.0379C147.854 23.2726 145.776 24.6846 145.526 27.0091C145.374 28.4343 146.058 29.8988 147.143 30.7438C148.95 32.1545 151.615 34.2162 155.138 36.9287C156.408 37.9088 157.195 38.628 157.498 39.0861C158.126 40.04 158.455 41.201 158.484 42.5692C158.553 45.8719 156.383 48.495 153.364 49.5765C152.353 49.9383 151.122 50.0847 149.668 50.0159C147.733 49.9245 145.95 49.5634 144.319 48.9325C143.784 48.726 143.251 48.398 142.717 47.9486C142.667 47.906 142.638 47.8522 142.629 47.7871C142.379 45.8707 142.526 44.075 143.072 42.4002C143.081 42.3713 143.1 42.3462 143.124 42.3283C143.149 42.3104 143.179 42.3007 143.209 42.3007H143.551C143.619 42.3007 143.65 42.3345 143.645 42.402C143.599 43.2057 143.603 43.7615 143.658 44.0694C143.987 45.8694 144.884 47.1625 146.349 47.9486C147.866 48.7616 149.687 48.7917 151.46 48.5326C153.709 48.204 155.675 46.7056 155.966 44.3323C156.111 43.1368 155.88 42.0597 155.273 41.1008C154.999 40.6677 154.307 40.0243 153.196 39.1706C150.594 37.1678 147.99 35.1631 145.385 33.1565C144.132 32.1902 143.41 30.8095 143.219 29.0145C142.949 26.4884 143.855 24.4994 145.936 23.0473C147.026 22.285 148.266 21.835 149.657 21.6973C151.217 21.5421 152.893 21.6259 154.687 21.9489C155.322 22.0615 155.9 22.0127 156.486 22.0277C156.556 22.0303 156.592 22.0659 156.593 22.1348L156.678 26.9134C156.679 26.9397 156.666 26.9528 156.64 26.9528Z" fill="#B0CDEF"/>
<path d="M113.68 22.7193C113.036 22.6542 112.504 22.7174 112.084 22.9089C111.625 23.118 111.291 23.4453 111.082 23.8909C110.963 24.1425 110.903 24.5781 110.903 25.1978C110.903 29.5601 110.903 33.9219 110.901 38.2831C110.9 40.0656 110.837 41.3129 110.712 42.0252C109.944 46.3625 106.754 49.0626 102.525 49.793C99.5943 50.3 95.9103 50.0972 93.2704 48.6495C89.9807 46.847 88.3328 43.9398 88.3265 39.9279C88.319 35.9435 88.3172 30.9509 88.3209 24.9499C88.3222 23.7532 87.7651 23.0228 86.6498 22.7587C86.4132 22.7036 86.0502 22.6899 85.5608 22.7174C85.4957 22.7211 85.4631 22.6905 85.4631 22.6254V22.3513C85.4631 22.3259 85.4734 22.3015 85.4917 22.2835C85.51 22.2656 85.5349 22.2555 85.5608 22.2555H93.9689C94.0314 22.2555 94.0627 22.2868 94.0627 22.3494V22.6122C94.0627 22.6811 94.0283 22.7143 93.9595 22.7118C93.6015 22.6955 93.3361 22.6986 93.1634 22.7211C92.2921 22.8338 91.7113 23.21 91.4209 23.8496C91.2782 24.1651 91.2075 24.7834 91.2087 25.7047C91.2137 30.186 91.215 34.6761 91.2125 39.1749C91.2125 41.0676 91.4678 42.9096 92.2884 44.5375C93.6603 47.2651 96.0242 48.6877 99.3802 48.8054C103.203 48.9387 106.677 47.3558 108.139 43.7094C108.609 42.5378 108.837 41.2297 108.825 39.7852C108.819 39.1605 108.817 34.4345 108.821 25.6071C108.822 24.7496 108.752 24.1657 108.609 23.8552C108.141 22.8357 107.12 22.6686 106.072 22.7118C106.002 22.7143 105.967 22.6811 105.967 22.6122V22.3531C105.967 22.288 106 22.2555 106.067 22.2555H113.69C113.732 22.2555 113.754 22.2761 113.754 22.3175V22.6554C113.754 22.6645 113.752 22.6734 113.748 22.6817C113.744 22.69 113.739 22.6974 113.732 22.7034C113.725 22.7095 113.717 22.714 113.708 22.7167C113.699 22.7195 113.69 22.7203 113.68 22.7193Z" fill="#B0CDEF"/>
<path d="M93.3836 0C93.8568 0 94.022 0.0826164 94.2267 0.538884C94.5847 1.335 95.5517 3.42607 97.1276 6.81209C97.1314 6.82037 97.1369 6.82777 97.1436 6.83384C97.1504 6.8399 97.1584 6.84449 97.167 6.84731C97.1757 6.85014 97.1848 6.85113 97.1939 6.85024C97.2029 6.84935 97.2117 6.84659 97.2196 6.84213C98.8069 5.96715 100.443 5.06838 102.128 4.14583C102.545 3.91864 102.905 3.88296 103.258 4.18527C103.596 4.47442 103.474 5.10719 103.393 5.5766C103.114 7.21265 102.588 10.2425 101.816 14.6663C101.788 14.8283 101.704 14.9754 101.579 15.0818C101.454 15.1882 101.295 15.2472 101.131 15.2483C100.335 15.2533 97.7529 15.2558 93.3855 15.2558C89.0181 15.2571 86.4363 15.2552 85.6402 15.2502C85.4758 15.249 85.3171 15.1901 85.1918 15.0837C85.0665 14.9773 84.9826 14.8302 84.9549 14.6681C84.1813 10.2444 83.6549 7.21453 83.3758 5.57848C83.295 5.10907 83.173 4.4763 83.511 4.18714C83.864 3.88484 84.2245 3.92052 84.6413 4.14771C86.3262 5.07026 87.9622 5.9684 89.5495 6.84213C89.5574 6.84659 89.5662 6.84935 89.5752 6.85024C89.5843 6.85113 89.5934 6.85014 89.6021 6.84731C89.6107 6.84449 89.6187 6.8399 89.6255 6.83384C89.6322 6.82777 89.6377 6.82037 89.6415 6.81209C91.2174 3.42607 92.1838 1.335 92.5406 0.538884C92.7452 0.0826164 92.9104 0 93.3836 0ZM93.3874 13.6861C95.6693 13.6861 97.9488 13.683 100.226 13.6767C100.238 13.6769 100.25 13.6724 100.26 13.6642C100.27 13.6559 100.276 13.6444 100.278 13.6317L101.529 6.41027C101.53 6.40382 101.53 6.39713 101.527 6.391C101.525 6.38488 101.521 6.3796 101.515 6.37581C101.51 6.37202 101.503 6.36989 101.497 6.36967C101.49 6.36946 101.484 6.37117 101.478 6.3746C99.9597 7.21077 98.5496 7.97998 97.2478 8.68222C96.9086 8.86498 96.6044 8.87499 96.3353 8.71226C96.1725 8.61462 96.0136 8.39744 95.8583 8.06072C94.6692 5.4896 93.8562 3.73964 93.4193 2.81083C93.4155 2.80082 93.4093 2.79518 93.4005 2.79393C93.3955 2.79268 93.3911 2.79205 93.3874 2.79205C93.3824 2.79205 93.3774 2.79268 93.3723 2.79393C93.3636 2.79518 93.3573 2.80082 93.3536 2.81083C92.9167 3.73964 92.1043 5.4896 90.9164 8.06072C90.7612 8.39744 90.6022 8.61462 90.4395 8.71226C90.1703 8.87499 89.8662 8.86498 89.5269 8.68222C88.2238 7.97998 86.8131 7.21077 85.2947 6.3746C85.2891 6.37117 85.2826 6.36946 85.276 6.36967C85.2694 6.36989 85.2631 6.37202 85.2577 6.37581C85.2523 6.3796 85.2481 6.38488 85.2457 6.391C85.2433 6.39713 85.2427 6.40382 85.244 6.41027L86.4964 13.6317C86.4986 13.6444 86.5051 13.6559 86.5148 13.6642C86.5244 13.6724 86.5365 13.6769 86.549 13.6767C88.8259 13.683 91.1054 13.6861 93.3874 13.6861Z" fill="#EAA93C"/>
<path d="M72.3242 8.28723H0.737037C0.704892 8.28723 0.678833 8.31329 0.678833 8.34543V10.4821C0.678833 10.5142 0.704892 10.5403 0.737037 10.5403H72.3242C72.3563 10.5403 72.3824 10.5142 72.3824 10.4821V8.34543C72.3824 8.31329 72.3563 8.28723 72.3242 8.28723Z" fill="#EAA93C"/>
<path d="M185.585 8.28699H113.997C113.967 8.28699 113.943 8.31137 113.943 8.34144V10.4856C113.943 10.5157 113.967 10.54 113.997 10.54H185.585C185.615 10.54 185.639 10.5157 185.639 10.4856V8.34144C185.639 8.31137 185.615 8.28699 185.585 8.28699Z" fill="#EAA93C"/>
</svg>
